<svg width="25" height="24" viewBox="0 0 25 24" fill="none" xmlns="http://www.w3.org/2000/svg">
<path d="M22.708 12.3745C22.708 11.2997 22.1102 10.3195 21.169 9.81999C21.1945 9.66624 21.208 9.51924 21.208 9.37449C21.208 8.29974 20.6102 7.31949 19.669 6.81999C19.6952 6.66624 19.708 6.51849 19.708 6.37449C19.708 5.24499 19.06 4.07424 18.1795 3.57699C17.998 2.24874 16.7687 1.22949 15.313 1.22949C14.1475 1.22949 13.1462 1.92549 12.688 2.92149C12.2297 1.92624 11.2285 1.22949 10.063 1.22949C8.57121 1.22949 7.33896 2.36049 7.19196 3.83349C6.26122 4.33674 5.66797 5.31699 5.66797 6.37449C5.66797 6.51849 5.68072 6.66549 5.70622 6.81999C4.76497 7.31949 4.16797 8.29974 4.16797 9.37449C4.16797 9.51849 4.18072 9.66549 4.20622 9.81999C3.26497 10.3195 2.66797 11.2997 2.66797 12.3745C2.66797 13.0307 2.89522 13.666 3.31147 14.182C3.13372 14.5675 3.04297 14.9672 3.04297 15.3745C3.04297 16.582 3.80947 17.662 4.93522 18.0782C4.92322 18.181 4.91797 18.2792 4.91797 18.3745C4.91797 19.7485 5.90197 20.929 7.23771 21.1997C7.50771 22.5355 8.68896 23.5202 10.063 23.5202C11.2292 23.5202 12.2297 22.8235 12.688 21.8282C12.82 22.1147 12.997 22.3757 13.2107 22.603C13.2242 22.633 13.2227 22.6667 13.2475 22.6915C13.2722 22.7162 13.306 22.7147 13.336 22.7282C13.8542 23.2157 14.5472 23.5202 15.313 23.5202C16.687 23.5202 17.8675 22.5362 18.1382 21.1997C19.474 20.9297 20.4587 19.7485 20.4587 18.3745C20.4587 18.2785 20.4527 18.1817 20.4415 18.0782C21.5665 17.6612 22.3337 16.582 22.3337 15.3745C22.3337 14.968 22.243 14.5682 22.0645 14.182C22.4807 13.6667 22.708 13.0315 22.708 12.3745ZM10.708 22.8782V21.5275C10.708 20.6395 10.0187 19.99 9.18621 19.2925C9.07146 19.198 8.90121 19.2122 8.80596 19.3262C8.70996 19.4402 8.72496 19.6112 8.83971 19.7072C9.70146 20.4295 10.1687 20.9335 10.1687 21.5282V22.969C10.1335 22.9705 10.0997 22.9795 10.0637 22.9795C8.89221 22.9795 7.89321 22.0982 7.74096 20.9305L7.71396 20.725L7.50846 20.698C6.33922 20.545 5.45797 19.546 5.45797 18.3745C5.45797 18.2725 5.47447 18.175 5.48872 18.076L6.79747 17.4962C6.93397 17.4362 6.99547 17.2765 6.93472 17.14C6.87397 17.0027 6.71422 16.939 6.57847 17.002L5.22622 17.602C4.25572 17.2915 3.58297 16.3915 3.58297 15.3745C3.58297 15.0842 3.65872 14.8 3.77272 14.5195H5.93797C6.08722 14.5195 6.20797 14.3987 6.20797 14.2495C6.20797 14.1002 6.08722 13.9795 5.93797 13.9795H3.85072L3.83272 13.96C3.42997 13.5197 3.20797 12.9572 3.20797 12.3745C3.20797 11.4407 3.76297 10.5947 4.62097 10.2182L4.82647 10.1282L4.77547 9.90999C4.72972 9.71724 4.70797 9.54174 4.70797 9.37449C4.70797 8.50974 5.18722 7.72524 5.93947 7.31499L7.23021 8.95449C7.46496 9.23949 7.67721 9.47049 7.90596 9.65124L6.49747 11.0597C6.39172 11.1655 6.39172 11.3357 6.49747 11.4415C6.54997 11.4932 6.61897 11.5195 6.68797 11.5195C6.75697 11.5195 6.82596 11.4932 6.87846 11.4407L8.37846 9.94074C8.38221 9.93699 8.38071 9.93024 8.38446 9.92649C8.54946 9.98424 8.72871 10.0202 8.93796 10.0202H10.438C10.5872 10.0202 10.708 9.89949 10.708 9.75024C10.708 9.60099 10.5872 9.48024 10.438 9.48024H8.93796C8.44596 9.48024 8.18421 9.26274 7.65021 8.61624L6.26947 6.86124C6.23197 6.68874 6.20797 6.52599 6.20797 6.37449C6.20797 5.52774 6.68047 4.74624 7.41922 4.33149L8.01471 4.82949C8.06496 4.87224 8.12646 4.89249 8.18796 4.89249C8.26521 4.89249 8.34171 4.85949 8.39496 4.79574C8.49021 4.68174 8.47521 4.51149 8.36121 4.41549L7.73796 3.89424C7.85646 2.69499 8.84946 1.76949 10.063 1.76949C11.3612 1.76949 12.418 2.82624 12.418 4.12449V7.25124C11.9965 6.74799 11.3372 6.47949 10.438 6.47949C10.2887 6.47949 10.168 6.60024 10.168 6.74949C10.168 6.89874 10.2887 7.01949 10.438 7.01949C11.8075 7.01949 12.418 7.62999 12.418 8.99949V12.4937C11.8562 12.5507 11.5435 12.7622 11.278 12.961C10.9367 13.2182 10.6675 13.42 9.74121 13.2347C9.59421 13.2032 9.45246 13.3 9.42321 13.4462C9.39396 13.5917 9.48846 13.735 9.63471 13.7635C9.91596 13.8197 10.153 13.8437 10.3577 13.8437C11.0005 13.8437 11.3155 13.6075 11.602 13.3922C11.827 13.2235 12.037 13.0795 12.418 13.0307V16.9705L10.813 16.978C10.03 16.978 9.48471 16.5355 9.19371 15.6625C9.14721 15.5215 8.99271 15.4442 8.85246 15.4915C8.71146 15.5387 8.63421 15.6917 8.68146 15.8335C9.16971 17.299 10.2265 17.518 10.8137 17.518L12.418 17.5105V20.623C12.418 21.6977 11.692 22.5955 10.708 22.8782ZM20.2787 17.554C19.8145 16.5925 19.1095 16.2145 17.893 16.2205L17.1385 16.2295C16.2332 16.2295 15.958 15.9422 15.958 14.9995C15.958 14.8502 15.8372 14.7295 15.688 14.7295C15.5387 14.7295 15.418 14.8502 15.418 14.9995C15.418 16.24 15.9332 16.7695 17.1422 16.7695L17.8997 16.7605C17.9177 16.7597 17.9365 16.7597 17.9545 16.7597C19.0157 16.7597 19.5085 17.0717 19.8767 17.965C19.9 18.0985 19.918 18.2335 19.918 18.3737C19.918 19.4357 19.1897 20.3492 18.1832 20.6252C18.1247 19.8287 17.8727 19.2182 17.374 18.7495C17.2645 18.6475 17.0942 18.652 16.9922 18.7607C16.8895 18.8702 16.8947 19.0405 17.0035 19.1425C17.4265 19.5407 17.6245 20.0575 17.6552 20.7805L17.6357 20.9297C17.4835 22.0982 16.4845 22.9787 15.313 22.9787C14.761 22.9787 14.26 22.78 13.858 22.4612L15.1292 21.19C15.235 21.0842 15.235 20.9132 15.1292 20.8075C15.0235 20.7017 14.8525 20.7017 14.7467 20.8075L13.4755 22.0795C13.156 21.6775 12.9572 21.1765 12.9572 20.6245V20.2495C12.9572 19.0645 13.3352 19.0195 14.9372 19.0195C15.0865 19.0195 15.2072 18.8987 15.2072 18.7495C15.2072 18.6002 15.0865 18.4795 14.9372 18.4795C14.101 18.4795 13.4065 18.4907 12.9572 18.8215V13.003C14.0537 12.97 14.4017 12.742 14.704 12.5372C14.923 12.3872 15.097 12.2695 15.688 12.2695C15.8372 12.2695 15.958 12.1487 15.958 11.9995C15.958 11.8502 15.8372 11.7295 15.688 11.7295C14.9305 11.7295 14.6612 11.9132 14.4002 12.0902C14.1497 12.2605 13.8835 12.4345 12.958 12.463V6.24774C13.3795 6.75099 14.0387 7.01949 14.938 7.01949C15.0872 7.01949 15.208 6.89874 15.208 6.74949C15.208 6.60024 15.0872 6.47949 14.938 6.47949C13.5685 6.47949 12.958 5.86899 12.958 4.49949V4.12449C12.958 2.82624 14.0147 1.76949 15.313 1.76949C16.4342 1.76949 17.38 2.50149 17.6042 3.47949H15.688C15.5387 3.47949 15.418 3.60024 15.418 3.74949C15.418 3.89874 15.5387 4.01949 15.688 4.01949H17.854C18.5935 4.39674 19.1672 5.41749 19.1672 6.37449C19.1672 6.51774 19.1425 6.67224 19.1095 6.83274C18.4 7.43199 17.8127 8.00499 17.6935 8.72949H15.688C15.5387 8.72949 15.418 8.85024 15.418 8.99949C15.418 9.14874 15.5387 9.26949 15.688 9.26949H17.668V11.2495C17.668 11.3987 17.7887 11.5195 17.938 11.5195C18.0872 11.5195 18.208 11.3987 18.208 11.2495V8.99949C18.208 8.43774 18.628 7.95474 19.3997 7.29549C20.173 7.70049 20.6672 8.49624 20.6672 9.37449C20.6672 9.54249 20.6455 9.71724 20.5997 9.90924L20.5487 10.1282L20.7542 10.2182C21.613 10.594 22.1672 11.4407 22.1672 12.3745C22.1672 12.9572 21.9452 13.5205 21.5425 13.9592L21.5245 13.9787H19.438C19.2887 13.9787 19.168 14.0995 19.168 14.2487C19.168 14.398 19.2887 14.5187 19.438 14.5187H21.6032C21.7172 14.7985 21.7922 15.0842 21.7922 15.3737C21.793 16.3457 21.178 17.2075 20.2787 17.554Z" fill="#1E1E1E"/>
</svg>
