<svg width="25" height="24" viewBox="0 0 25 24" fill="none" xmlns="http://www.w3.org/2000/svg">
<path d="M7.06379 1.17188C6.29036 1.17188 5.59661 1.33125 5.12832 1.56562C4.66426 1.8 4.48614 2.0625 4.48614 2.25C4.48614 2.43281 4.66426 2.70047 5.12832 2.92969C5.59661 3.16406 6.29036 3.32812 7.06379 3.32812C7.83723 3.32812 8.53098 3.16406 8.99504 2.92969C9.46379 2.70047 9.64192 2.43281 9.64192 2.25C9.64192 2.0625 9.46379 1.8 8.99504 1.56562C8.53098 1.33125 7.83723 1.17188 7.06379 1.17188ZM14.5638 2.67187C13.7904 2.67187 13.0966 2.83125 12.6325 3.06563C12.1638 3.3 11.9857 3.5625 11.9857 3.75C11.9857 3.93281 12.1638 4.20047 12.6325 4.42969C13.0966 4.66406 13.7904 4.82766 14.5638 4.82766C14.7794 4.82766 14.9857 4.81359 15.1825 4.79016C15.3841 4.53281 15.67 4.30453 16.0029 4.15266C16.3872 3.97922 16.8325 3.83859 17.1419 3.75C17.1419 3.5625 16.9638 3.3 16.495 3.06563C16.031 2.83125 15.3372 2.67187 14.5638 2.67187ZM4.48614 3.53391C4.46739 4.22109 5.21176 4.50141 5.68098 4.64016C6.52004 4.88391 7.60754 4.88391 8.44661 4.64016C9.04661 4.46859 9.63723 4.13766 9.64192 3.53391C8.88723 4.03219 7.78567 4.16625 7.06379 4.17141C6.14973 4.095 5.18973 4.00031 4.48614 3.53391ZM18.3138 4.51406C17.5404 4.51406 16.8466 4.67344 16.3825 4.91203C15.9138 5.14172 15.7357 5.40891 15.7357 5.59172C15.7357 5.77922 15.9138 6.04172 16.3825 6.27609C16.8466 6.51047 17.5404 6.66984 18.3138 6.66984C19.0872 6.66984 19.781 6.51047 20.245 6.27609C20.7138 6.04172 20.8919 5.77922 20.8919 5.59172C20.8919 5.40891 20.7138 5.14172 20.245 4.91203C19.781 4.67344 19.0872 4.51406 18.3138 4.51406ZM11.9857 5.03391V5.14641C12.1216 5.19328 12.2529 5.24953 12.3747 5.31047C12.7966 5.52141 13.1622 5.81672 13.3497 6.18703C13.8279 6.30422 14.3669 6.34641 14.8919 6.31359V5.66203C14.7841 5.66672 14.6763 5.67141 14.5638 5.67141C13.6779 5.67141 12.8716 5.49797 12.2529 5.18859C12.1591 5.14172 12.07 5.09016 11.9857 5.03391ZM4.48614 5.03859C4.4702 5.72297 5.21364 6.00422 5.68098 6.14484C5.99973 6.23391 6.35598 6.29484 6.72161 6.31359C6.81536 6.06984 6.98411 5.85422 7.19973 5.67141C6.59973 5.68547 5.99504 5.61047 5.44661 5.45578C5.08145 5.34797 4.75801 5.21203 4.48614 5.03859ZM10.0638 5.67141C9.29036 5.67141 8.59661 5.83547 8.13254 6.06516C7.66379 6.29953 7.48567 6.56203 7.48567 6.74953C7.48567 6.93703 7.66379 7.19953 8.13254 7.43391C8.59661 7.66828 9.29036 7.82766 10.0638 7.82766C10.8372 7.82766 11.531 7.66828 11.995 7.43391C12.4638 7.19953 12.6419 6.93703 12.6419 6.74953C12.6419 6.56203 12.4638 6.29953 11.995 6.06516C11.531 5.83547 10.8372 5.67141 10.0638 5.67141ZM4.48614 6.53859C4.4702 7.22297 5.21364 7.50422 5.68098 7.64484C5.97629 7.72922 6.30442 7.78547 6.64192 7.80891V7.16203C6.22942 7.13391 5.82629 7.06359 5.44661 6.95578C5.08145 6.84797 4.75801 6.71203 4.48614 6.53859ZM15.7357 6.88078C15.7263 7.56984 16.4575 7.84641 16.931 7.98703C17.77 8.23078 18.8575 8.23078 19.6966 7.98703C20.2919 7.81359 20.8872 7.48547 20.8919 6.88078C20.8075 6.93234 20.7185 6.98391 20.6247 7.03078C20.006 7.34016 19.1997 7.51359 18.3138 7.51359C17.4279 7.51359 16.6216 7.34016 16.0029 7.03078C15.9091 6.98391 15.82 6.93234 15.7357 6.88078ZM13.4857 7.07766V7.71984C13.9263 7.80891 14.4185 7.84172 14.8919 7.81359V7.16672C14.4185 7.19016 13.9404 7.16203 13.4857 7.07766ZM7.48567 8.03391C7.46223 8.31516 7.58879 8.54484 7.74348 8.68078C7.94036 8.84953 8.25911 9.02297 8.68098 9.14484C9.52004 9.38391 10.6075 9.38391 11.4466 9.14484C11.8685 9.02297 12.1872 8.84953 12.3841 8.68078C12.6138 8.48859 12.6419 8.30109 12.6419 8.03391C12.5575 8.09016 12.4685 8.14172 12.3747 8.18859C11.756 8.49797 10.9497 8.67141 10.0638 8.67141C9.17786 8.67141 8.37161 8.49797 7.75286 8.18859C7.65911 8.14172 7.57004 8.09016 7.48567 8.03391ZM4.48614 8.03859C4.4702 8.72297 5.21364 9.00422 5.68098 9.14484C5.97629 9.22922 6.30442 9.28547 6.64192 9.30891V8.66203C6.22942 8.63391 5.82629 8.56359 5.44661 8.45578C5.08145 8.34797 4.75801 8.21203 4.48614 8.03859ZM15.7357 8.38078C15.7263 9.06984 16.4575 9.34641 16.931 9.48703C17.77 9.73078 18.8575 9.73078 19.6966 9.48703C20.2919 9.31359 20.8872 8.98547 20.8919 8.38078C20.62 8.55422 20.2966 8.69016 19.931 8.79797C18.9138 9.09328 17.7138 9.09328 16.6966 8.79797C16.331 8.69016 16.0075 8.55422 15.7357 8.38078ZM13.4857 8.57766V9.21984C13.9263 9.30891 14.4185 9.34172 14.8919 9.31359V8.66672C14.4185 8.69016 13.9404 8.66203 13.4857 8.57766ZM4.48614 9.53859C4.4702 10.223 5.21364 10.5042 5.68098 10.6448C5.97629 10.7292 6.30442 10.7855 6.64192 10.8089V10.162C6.22942 10.1339 5.82629 10.0636 5.44661 9.95578C5.08145 9.84797 4.75801 9.71203 4.48614 9.53859ZM7.48567 9.53859C7.46223 9.81984 7.58879 10.0448 7.74348 10.1808C7.94036 10.3495 8.25911 10.523 8.68098 10.6448C9.52004 10.8839 10.6075 10.8839 11.4466 10.6448C11.8685 10.523 12.1872 10.3495 12.3841 10.1808C12.6138 9.98859 12.6419 9.80578 12.6419 9.53859C12.37 9.71203 12.0466 9.84797 11.681 9.95578C10.6638 10.2464 9.46379 10.2464 8.44661 9.95578C8.08098 9.84797 7.75754 9.71203 7.48567 9.53859ZM15.7357 9.88078C15.7263 10.5698 16.4575 10.8464 16.931 10.987C17.77 11.2308 18.8575 11.2308 19.6966 10.987C20.2919 10.8136 20.8872 10.4855 20.8919 9.88078C20.62 10.0542 20.2966 10.1902 19.931 10.298C18.9138 10.5933 17.7138 10.5933 16.6966 10.298C16.331 10.1902 16.0075 10.0542 15.7357 9.88078ZM13.4857 10.0777V10.7198C13.9263 10.8089 14.4185 10.8417 14.8919 10.8136V10.1667C14.4185 10.1902 13.9404 10.162 13.4857 10.0777ZM7.48567 11.0386V11.1464C7.62161 11.1933 7.75286 11.2495 7.87473 11.3105C8.29661 11.5214 8.66223 11.8167 8.84973 12.187C9.66067 12.3839 10.6638 12.3698 11.4466 12.1448C11.8685 12.023 12.1872 11.8495 12.3841 11.6808C12.6138 11.4886 12.6419 11.3058 12.6419 11.0386C12.37 11.212 12.0466 11.348 11.681 11.4558C10.6638 11.7464 9.46379 11.7464 8.44661 11.4558C8.08098 11.348 7.75754 11.212 7.48567 11.0386ZM15.7357 11.3808C15.7263 12.0698 16.4575 12.3464 16.931 12.487C17.77 12.7308 18.8575 12.7308 19.6966 12.487C20.2919 12.3136 20.8872 11.9855 20.8919 11.3808C20.62 11.5542 20.2966 11.6902 19.931 11.798C18.9138 12.0933 17.7138 12.0933 16.6966 11.798C16.331 11.6902 16.0075 11.5542 15.7357 11.3808ZM13.4857 11.5777V12.2198C13.9263 12.3089 14.4185 12.3417 14.8919 12.3136V11.6667C14.4185 11.6902 13.9404 11.662 13.4857 11.5777ZM5.56379 11.6714C4.79082 11.6714 4.09707 11.8355 3.62832 12.0652C3.16426 12.2995 2.98614 12.562 2.98614 12.7495C2.98614 12.937 3.16426 13.1995 3.62832 13.4339C4.09707 13.6683 4.79082 13.8277 5.56379 13.8277C6.33723 13.8277 7.03098 13.6683 7.49504 13.4339C7.96379 13.1995 8.14192 12.937 8.14192 12.7495C8.14192 12.562 7.96379 12.2995 7.49504 12.0652C7.03098 11.8355 6.33723 11.6714 5.56379 11.6714ZM12.6419 12.5386C12.37 12.712 12.0466 12.848 11.681 12.9558C10.8372 13.1948 9.87161 13.237 8.98567 13.0777V13.7198C9.77317 13.8839 10.706 13.8558 11.4466 13.6448C12.0372 13.4714 12.6372 13.1386 12.6419 12.5386ZM15.7357 12.8808C15.7216 13.5464 16.4247 13.8323 16.8888 13.973C17.1513 13.762 17.3904 13.6027 17.6716 13.4855C17.3341 13.448 17.006 13.387 16.6966 13.298C16.331 13.1902 16.0075 13.0542 15.7357 12.8808ZM20.8919 12.8808C20.7607 12.9652 20.6154 13.0402 20.456 13.1105C20.6013 13.1245 20.7466 13.1433 20.8825 13.1667C20.9013 13.073 20.8919 12.9792 20.8919 12.8808ZM13.4857 13.0777V13.7152C13.9966 13.8136 14.4232 13.837 14.8919 13.8183V13.1667C14.4185 13.1902 13.9404 13.162 13.4857 13.0777ZM19.8138 13.9214C19.0404 13.9214 18.3466 14.0855 17.8825 14.3152C17.4138 14.5495 17.2357 14.812 17.2357 14.9995C17.2357 15.187 17.4138 15.4495 17.8825 15.6839C18.3466 15.9183 19.0404 16.0777 19.8138 16.0777C20.5872 16.0777 21.281 15.9183 21.745 15.6839C22.2138 15.4495 22.3919 15.187 22.3919 14.9995C22.3919 14.812 22.2138 14.5495 21.745 14.3152C21.281 14.0855 20.5872 13.9214 19.8138 13.9214ZM2.98614 14.0339C2.97254 14.7277 3.70379 15.0042 4.18145 15.1448C5.02051 15.3839 6.10754 15.3839 6.94661 15.1448C7.54192 14.9714 8.13723 14.6386 8.14192 14.0339C8.05754 14.0902 7.96848 14.1417 7.87473 14.1886C7.25598 14.498 6.44973 14.6714 5.56379 14.6714C4.64457 14.5964 3.69442 14.5027 2.98614 14.0339ZM12.6419 14.0386C12.37 14.212 12.0466 14.348 11.681 14.4558C10.8372 14.6948 9.87161 14.737 8.98567 14.5777V15.2198C9.77317 15.3839 10.706 15.3558 11.4466 15.1448C12.0372 14.9714 12.6372 14.6386 12.6419 14.0386ZM15.7357 14.3808C15.7169 14.8636 16.1107 15.1355 16.3825 15.2761C16.3825 15.2761 16.3872 15.2808 16.3919 15.2808V14.6995C16.1482 14.6105 15.9279 14.5027 15.7357 14.3808ZM2.98614 15.5386C2.9702 16.223 3.71364 16.5042 4.18145 16.6448C5.02051 16.8839 6.10754 16.8839 6.94661 16.6448C7.53723 16.4714 8.13723 16.1386 8.14192 15.5386C7.87004 15.712 7.54661 15.848 7.18098 15.9558C6.16379 16.2464 4.96426 16.2464 3.94707 15.9558C3.58145 15.848 3.25801 15.712 2.98614 15.5386ZM8.98567 16.0777V16.7152C9.21536 16.7667 9.46379 16.7995 9.72161 16.8183C9.81536 16.5698 9.98411 16.3542 10.1997 16.1714C9.79192 16.1808 9.37942 16.148 8.98567 16.0777ZM13.0638 16.1714C12.2904 16.1714 11.5966 16.3355 11.1325 16.5652C10.6638 16.7995 10.4857 17.062 10.4857 17.2495C10.4857 17.437 10.6638 17.6995 11.1325 17.9339C11.5966 18.1683 12.2904 18.3277 13.0638 18.3277C13.8372 18.3277 14.531 18.1683 14.995 17.9339C15.4638 17.6995 15.6419 17.437 15.6419 17.2495C15.6419 17.062 15.4638 16.7995 14.995 16.5652C14.531 16.3355 13.8372 16.1714 13.0638 16.1714ZM17.2357 16.2839C17.231 16.9777 17.9482 17.2542 18.431 17.3948C19.27 17.6339 20.3575 17.6339 21.1966 17.3948C21.7919 17.2214 22.3872 16.8886 22.3919 16.2839C21.6513 16.7339 20.531 16.9167 19.8138 16.9214C18.895 16.8464 17.9435 16.7527 17.2357 16.2839ZM2.98614 17.0386C2.9702 17.723 3.71364 18.0042 4.18145 18.1448C5.02051 18.3839 6.10754 18.3839 6.94661 18.1448C7.53723 17.9714 8.13723 17.6386 8.14192 17.0386C7.87004 17.212 7.54661 17.348 7.18098 17.4558C6.16379 17.7464 4.96426 17.7464 3.94707 17.4558C3.58145 17.348 3.25801 17.212 2.98614 17.0386ZM17.2357 17.7886C17.2263 18.4777 17.9575 18.7542 18.431 18.8948C19.27 19.1339 20.3575 19.1339 21.1966 18.8948C21.7872 18.7214 22.3872 18.3886 22.3919 17.7886C22.12 17.962 21.7966 18.098 21.431 18.2058C20.4138 18.4964 19.2138 18.4964 18.1966 18.2058C17.831 18.098 17.5075 17.962 17.2357 17.7886ZM10.4857 18.5339C10.4622 18.8152 10.5888 19.0448 10.7435 19.1808C10.9404 19.3495 11.2591 19.523 11.681 19.6448C12.52 19.8839 13.6075 19.8839 14.4466 19.6448C14.8685 19.523 15.1872 19.3495 15.3841 19.1808C15.581 19.012 15.6419 18.8667 15.6419 18.7495V18.5339C15.5575 18.5902 15.4685 18.6417 15.3747 18.6886C14.756 18.998 13.9497 19.1714 13.0638 19.1714C12.1779 19.1714 11.3716 18.998 10.7529 18.6886C10.6591 18.6417 10.57 18.5902 10.4857 18.5339ZM2.98614 18.5386C2.9702 19.223 3.71364 19.5042 4.18145 19.6448C5.02051 19.8839 6.10754 19.8839 6.94661 19.6448C7.53723 19.4714 8.13723 19.1386 8.14192 18.5386C7.87004 18.712 7.54661 18.848 7.18098 18.9558C6.16379 19.2464 4.96426 19.2464 3.94707 18.9558C3.58145 18.848 3.25801 18.712 2.98614 18.5386ZM17.2357 19.2886C17.2263 19.9777 17.9575 20.2542 18.431 20.3948C19.27 20.6339 20.3575 20.6339 21.1966 20.3948C21.7872 20.2214 22.3872 19.8886 22.3919 19.2886C22.12 19.462 21.7966 19.598 21.431 19.7058C20.4138 19.9964 19.2138 19.9964 18.1966 19.7058C17.831 19.598 17.5075 19.462 17.2357 19.2886ZM2.98614 20.0386C2.9702 20.723 3.71364 21.0042 4.18145 21.1448C5.02051 21.3839 6.10754 21.3839 6.94661 21.1448C7.53723 20.9714 8.13723 20.6386 8.14192 20.0386C7.87004 20.212 7.54661 20.348 7.18098 20.4558C6.16379 20.7464 4.96426 20.7464 3.94707 20.4558C3.58145 20.348 3.25801 20.212 2.98614 20.0386ZM10.4857 20.0386C10.4669 20.5214 10.8607 20.7933 11.1325 20.9339C11.5966 21.1683 12.2904 21.3277 13.0638 21.3277C13.8372 21.3277 14.531 21.1683 14.995 20.9339C15.4591 20.6433 15.6419 20.5308 15.6419 20.0386C15.37 20.212 15.0466 20.348 14.681 20.4558C13.6638 20.7464 12.4638 20.7464 11.4466 20.4558C11.081 20.348 10.7575 20.212 10.4857 20.0386ZM17.2357 20.7886C17.2169 21.2714 17.6107 21.5433 17.8825 21.6839C18.3466 21.9183 19.0404 22.0777 19.8138 22.0777C20.5872 22.0777 21.281 21.9183 21.745 21.6839C22.2091 21.3933 22.3919 21.2808 22.3919 20.7886C22.12 20.962 21.7966 21.098 21.431 21.2058C20.4138 21.4964 19.2138 21.4964 18.1966 21.2058C17.831 21.098 17.5075 20.962 17.2357 20.7886ZM2.98614 21.5386C2.96551 22.0167 3.35551 22.2933 3.62832 22.4339C4.09707 22.6683 4.79082 22.8277 5.56379 22.8277C6.33723 22.8277 7.03098 22.6683 7.49504 22.4339C7.95911 22.1433 8.14192 22.0308 8.14192 21.5386C7.87004 21.712 7.54661 21.848 7.18098 21.9558C6.16379 22.2464 4.96426 22.2464 3.94707 21.9558C3.58145 21.848 3.25801 21.712 2.98614 21.5386Z" fill="#1E1E1E"/>
</svg>
