<svg width="147" height="518" viewBox="0 0 147 518" fill="none" xmlns="http://www.w3.org/2000/svg">
<mask id="mask0_14_912" style="mask-type:alpha" maskUnits="userSpaceOnUse" x="-1" y="0" width="148" height="518">
<rect x="-1" width="148" height="518" fill="#D9D9D9"/>
</mask>
<g mask="url(#mask0_14_912)">
<g opacity="0.5" clip-path="url(#clip0_14_912)">
<g filter="url(#filter0_d_14_912)">
<path d="M-135.037 256.132C-138.197 256.132 -141.308 256.645 -144.468 257.5C-150.739 259.21 -154 261.989 -154 265.622C-154 269.256 -151.993 272.676 -147.729 276.31L-135.188 286.997L-122.646 297.685L-110.104 308.372L-97.5625 319.06L-85.0208 329.747L-72.4792 340.435L-59.9375 351.122L-47.3958 361.81L-34.8542 372.497L-22.3125 383.185L-9.77083 393.872L2.77084 404.56L15.3125 415.247C19.5767 418.881 24.8442 421.446 31.115 423.37C37.3858 425.294 43.6567 425.08 49.9275 423.37C55.8861 421.787 61.3075 419 65.73 415.247L78.2717 404.56L90.8133 393.872L103.355 383.185L115.897 372.497L128.438 361.81L140.98 351.122L147 345.992V313.502L140.98 308.372L128.438 297.685L115.897 286.997C111.633 283.364 107.619 281.654 103.355 281.654C99.0908 281.654 95.0775 283.364 90.8133 286.997L78.2717 297.685L65.73 308.372L53.1883 319.06L40.6467 329.747L28.105 340.435L15.5633 351.122C11.2992 354.756 7.28584 356.466 3.02167 356.466C-1.24249 356.466 -5.25583 354.756 -9.52 351.122L-22.0617 340.435L-34.6033 329.747L-47.145 319.06L-59.6867 308.372L-72.2283 297.685L-84.77 286.997L-97.3117 276.31L-109.853 265.622C-114.343 261.943 -119.742 259.167 -125.656 257.5C-128.662 256.569 -131.839 256.106 -135.037 256.132ZM147 264.041C146.85 264.554 146.749 265.067 146.749 265.622C146.749 266.349 146.85 267.033 147 267.717V264.041ZM-154 313.502V345.992L-147.478 340.435C-143.214 336.801 -141.207 333.381 -141.207 329.747C-141.207 326.114 -143.214 322.694 -147.478 319.06L-154 313.502ZM-122.646 452.654C-126.91 452.654 -130.923 454.364 -135.188 457.997L-147.729 468.685C-151.993 472.319 -154 475.739 -154 479.372C-154 483.006 -150.739 485.571 -144.468 487.495C-138.197 489.419 -130.923 490.274 -122.395 490.274C-114.117 490.274 -106.592 489.419 -100.322 487.495C-94.0508 485.571 -90.79 483.006 -90.79 479.372C-90.79 475.739 -92.7967 472.319 -97.0608 468.685C-101.827 465.051 -105.84 461.631 -110.104 457.997C-114.368 454.364 -118.382 452.654 -122.646 452.654Z" fill="#F2F2F2"/>
</g>
<g filter="url(#filter1_d_14_912)">
<path d="M2.26917 19.5957C-5.50667 19.8095 -13.0317 20.6645 -19.3025 22.3745C-25.5733 24.0845 -28.8342 26.8632 -28.8342 30.497C-28.8342 34.1307 -26.8275 37.5507 -22.5633 41.1845L-10.0217 51.872C-5.75751 55.5057 -1.74416 57.2157 2.52 57.2157C6.78416 57.2157 10.7975 55.5057 15.0617 51.872L27.6033 41.1845C31.8675 37.5507 33.8742 34.1307 33.8742 30.497C33.8742 26.8632 30.6133 24.2982 24.3425 22.3745C18.0717 20.6645 10.7975 19.5957 2.26917 19.5957ZM-110.255 106.592C-113.365 106.592 -116.526 107.019 -119.636 107.874C-125.594 109.459 -131.015 112.245 -135.438 115.997L-147.98 126.684L-154 131.814V174.778L-147.729 169.434L-135.188 158.747C-130.923 155.113 -126.91 153.403 -122.646 153.403C-118.382 153.403 -114.368 155.113 -110.104 158.747L-97.5625 169.434L-85.0208 180.122L-72.4792 190.809L-59.9375 201.497L-47.3958 212.184L-34.8542 222.872C-30.59 226.506 -26.5767 228.216 -22.3125 228.216C-18.0483 228.216 -14.035 226.506 -9.77083 222.872L2.77084 212.184C7.035 208.551 9.04167 205.131 9.04167 201.497C9.04167 197.863 7.035 194.443 2.77084 190.809L-9.77083 180.122L-22.3125 169.434L-34.8542 158.747L-47.3958 148.059L-59.9375 137.372L-72.4792 126.684L-85.0208 115.997C-89.5101 112.317 -94.9099 109.542 -100.823 107.874C-103.984 107.019 -107.094 106.592 -110.255 106.592ZM147 131.387L140.228 137.158L127.686 147.846L115.144 158.533L102.603 169.221L90.0609 179.908L77.5192 190.596L64.9775 201.283L52.4359 211.971L39.8942 222.658L27.3525 233.346C23.0883 236.979 21.0817 240.399 21.0817 244.033C21.0817 247.667 24.3425 250.232 30.6133 252.156C37.135 254.079 43.4058 254.079 49.6767 252.156C55.6344 250.571 61.0555 247.785 65.4792 244.033L78.0208 233.346L90.5625 222.658L103.104 211.971L115.646 201.283L128.188 190.596L140.729 179.908L147 174.564V131.387ZM2.77084 276.309C-5.50665 276.309 -13.0317 277.164 -19.3025 279.088C-25.5733 281.012 -28.8342 283.577 -28.8342 287.211C-28.8342 290.844 -26.8275 294.264 -22.5633 297.898L-10.0217 308.586C-5.75751 312.219 -1.74416 313.929 2.52 313.929C6.78416 313.929 10.7975 312.219 15.0617 308.586L27.6033 297.898C31.8675 294.264 33.8742 290.844 33.8742 287.211C33.8742 283.577 30.6133 281.012 24.3425 279.088C17.3967 277.098 10.0964 276.158 2.77084 276.309ZM-110.255 363.006C-119.729 363.438 -128.689 366.815 -135.438 372.497L-147.98 383.184L-154 388.314V431.278L-147.729 425.934L-135.188 415.247C-130.923 411.613 -126.91 409.903 -122.646 409.903C-118.382 409.903 -114.368 411.613 -110.104 415.247L-97.5625 425.934L-85.0208 436.622L-72.4792 447.309L-59.9375 457.997L-47.3958 468.684L-34.8542 479.372C-30.59 483.006 -26.5767 484.716 -22.3125 484.716C-18.0483 484.716 -14.035 483.006 -9.77083 479.372L2.77084 468.684C7.035 465.051 9.04167 461.631 9.04167 457.997C9.04167 454.363 7.035 450.943 2.77084 447.309L-9.77083 436.622L-22.3125 425.934L-34.8542 415.247L-47.3958 404.559L-59.9375 393.872L-72.4792 383.184L-85.0208 372.497C-89.5101 368.817 -94.9099 366.042 -100.823 364.374C-103.846 363.442 -107.04 362.978 -110.255 363.006ZM141.586 424.102C141.018 423.371 140.343 422.73 139.585 422.2L138.594 421.509C136.236 419.862 133.502 418.833 130.644 418.516L128.35 418.261C126.786 418.087 125.211 418.054 123.641 418.162L122.624 418.232C115.365 418.733 108.409 421.335 102.603 425.721L90.0609 436.408L77.5192 447.096L64.9775 457.783L52.4359 468.471L39.8942 479.158L27.3525 489.846C23.0883 493.479 21.0817 496.899 21.0817 500.533C21.0817 504.167 24.3425 506.732 30.6133 508.656C36.8842 510.579 43.4058 510.579 49.6767 508.656C55.6344 507.071 61.0555 504.285 65.4792 500.533L78.0208 489.846L90.5625 479.158L103.104 468.471L115.646 457.783L128.188 447.096L140.729 436.408C144.237 433.419 144.772 428.199 141.943 424.56L141.586 424.102Z" fill="#333333"/>
</g>
<g filter="url(#filter2_d_14_912)">
<path d="M-144.468 1C-150.739 2.71 -154 5.48875 -154 9.1225C-154 12.7563 -151.993 16.1763 -147.729 19.81L-135.188 30.4975L-122.646 41.185L-110.104 51.8725L-97.5625 62.56L-85.0208 73.2475L-72.4792 83.935L-59.9375 94.6225L-47.3958 105.31L-34.8542 115.997L-22.3125 126.685L-9.77083 137.372L2.77084 148.06L15.3125 158.748C19.5767 162.381 24.8442 164.946 31.115 166.87C37.2248 168.583 43.8177 168.583 49.9275 166.87C55.8861 165.287 61.3075 162.501 65.73 158.748L78.2717 148.06L90.8133 137.372L103.355 126.685L115.897 115.997L128.438 105.31L140.98 94.6225L147 89.4925V57.0025L140.98 51.8725L128.438 41.185L115.897 30.4975C111.633 26.8638 107.619 25.1538 103.355 25.1538C99.0908 25.1538 95.0775 26.8638 90.8133 30.4975L78.2717 41.185L65.73 51.8725L53.1883 62.56L40.6467 73.2475L28.105 83.935L15.5633 94.6225C11.2992 98.2562 7.28584 99.9662 3.02167 99.9662C-1.24249 99.9662 -5.25583 98.2562 -9.52 94.6225L-22.0617 83.935L-34.6033 73.2475L-47.145 62.56L-59.6867 51.8725L-72.2283 41.185L-84.77 30.4975L-97.3117 19.81L-109.853 9.1225C-114.343 5.44299 -119.742 2.66749 -125.656 1L-144.468 1ZM147 7.54075C146.85 8.05375 146.749 8.56675 146.749 9.1225C146.749 9.67825 146.9 10.234 147 10.747V7.54075ZM-154 57.0025V89.4925L-147.478 83.935C-143.214 80.3012 -141.207 76.8812 -141.207 73.2475C-141.207 69.6137 -143.214 66.1937 -147.478 62.56L-154 57.0025ZM-122.646 196.154C-126.91 196.154 -130.923 197.864 -135.188 201.498L-147.729 212.185C-151.993 215.819 -154 219.239 -154 222.873C-154 226.506 -150.739 229.071 -144.468 230.995C-138.197 232.705 -130.923 233.774 -122.395 233.774C-114.117 233.774 -106.592 232.919 -100.322 230.995C-94.0508 229.285 -90.79 226.506 -90.79 222.873C-90.79 219.239 -92.7967 215.819 -97.0608 212.185C-101.827 208.551 -105.84 205.131 -110.104 201.498C-114.368 197.864 -118.382 196.154 -122.646 196.154ZM-135.037 512.632C-138.197 512.632 -141.308 513.145 -144.468 514H-125.656C-128.662 513.07 -131.839 512.606 -135.037 512.632Z" fill="#F2F2F2"/>
</g>
</g>
</g>
<defs>
<filter id="filter0_d_14_912" x="-173.249" y="246.506" width="339.499" height="272.641" filterUnits="userSpaceOnUse" color-interpolation-filters="sRGB">
<feFlood flood-opacity="0" result="BackgroundImageFix"/>
<feColorMatrix in="SourceAlpha" type="matrix" values="0 0 0 0 0 0 0 0 0 0 0 0 0 0 0 0 0 0 127 0" result="hardAlpha"/>
<feOffset dy="9.62463"/>
<feGaussianBlur stdDeviation="9.62463"/>
<feComposite in2="hardAlpha" operator="out"/>
<feColorMatrix type="matrix" values="0 0 0 0 0.956863 0 0 0 0 0.501961 0 0 0 0 0.12549 0 0 0 0.15 0"/>
<feBlend mode="normal" in2="BackgroundImageFix" result="effect1_dropShadow_14_912"/>
<feBlend mode="normal" in="SourceGraphic" in2="effect1_dropShadow_14_912" result="shape"/>
</filter>
<filter id="filter1_d_14_912" x="-173.249" y="9.97108" width="339.499" height="529.001" filterUnits="userSpaceOnUse" color-interpolation-filters="sRGB">
<feFlood flood-opacity="0" result="BackgroundImageFix"/>
<feColorMatrix in="SourceAlpha" type="matrix" values="0 0 0 0 0 0 0 0 0 0 0 0 0 0 0 0 0 0 127 0" result="hardAlpha"/>
<feOffset dy="9.62463"/>
<feGaussianBlur stdDeviation="9.62463"/>
<feComposite in2="hardAlpha" operator="out"/>
<feColorMatrix type="matrix" values="0 0 0 0 0.956863 0 0 0 0 0.501961 0 0 0 0 0.12549 0 0 0 0.15 0"/>
<feBlend mode="normal" in2="BackgroundImageFix" result="effect1_dropShadow_14_912"/>
<feBlend mode="normal" in="SourceGraphic" in2="effect1_dropShadow_14_912" result="shape"/>
</filter>
<filter id="filter2_d_14_912" x="-173.249" y="-8.62463" width="339.499" height="551.499" filterUnits="userSpaceOnUse" color-interpolation-filters="sRGB">
<feFlood flood-opacity="0" result="BackgroundImageFix"/>
<feColorMatrix in="SourceAlpha" type="matrix" values="0 0 0 0 0 0 0 0 0 0 0 0 0 0 0 0 0 0 127 0" result="hardAlpha"/>
<feOffset dy="9.62463"/>
<feGaussianBlur stdDeviation="9.62463"/>
<feComposite in2="hardAlpha" operator="out"/>
<feColorMatrix type="matrix" values="0 0 0 0 0.956863 0 0 0 0 0.501961 0 0 0 0 0.12549 0 0 0 0.15 0"/>
<feBlend mode="normal" in2="BackgroundImageFix" result="effect1_dropShadow_14_912"/>
<feBlend mode="normal" in="SourceGraphic" in2="effect1_dropShadow_14_912" result="shape"/>
</filter>
<clipPath id="clip0_14_912">
<rect width="301" height="513" fill="white" transform="translate(-154 1)"/>
</clipPath>
</defs>
</svg>
